<svg xmlns="http://www.w3.org/2000/svg" width="21.8" height="10.122"><g data-name="Group 448"><path data-name="Path 811" d="M18.475 6.3l-1.232-3.367q-.091-.224-.189-.532t-.2-.665q-.091.357-.189.668t-.189.543L15.255 6.3zm3.325 3.822h-1.456a.622.622 0 01-.4-.123.763.763 0 01-.231-.3l-.755-2.069h-4.193l-.756 2.065a.671.671 0 01-.217.294.606.606 0 01-.4.133h-1.469L15.906 0h1.918z"/><path data-name="Path 805" d="M9.278 4.619a.062.062 0 000-.019.06.06 0 00-.006-.021.071.071 0 000-.012.06.06 0 000-.018v-.011l-.01-.009a.07.07 0 00-.017-.028V4.49l-.006-.009a.07.07 0 00-.008-.012v-.006l-.014-.014-.009-.011-1.2-1.19a.4.4 0 00-.561 0 .4.4 0 000 .561l.513.513H1.383l.513-.513a.394.394 0 00.116-.28.394.394 0 00-.116-.28.4.4 0 00-.561 0l-1.19 1.19a.152.152 0 00-.016.019l-.007.009a.067.067 0 00-.012.017.073.073 0 00-.016.023v.005a.072.072 0 00-.009.014.068.068 0 00-.009.014.067.067 0 00-.009.013l-.011.011v.011a.059.059 0 000 .013.078.078 0 000 .018.059.059 0 000 .018.067.067 0 000 .022v.105a.079.079 0 00.005.03.083.083 0 00.006.022v.011a.061.061 0 00.005.018.066.066 0 000 .012.059.059 0 00.006.021.068.068 0 00.019.033.066.066 0 00.009.014.065.065 0 00.009.014.069.069 0 00.008.012v.005l.011.011a.071.071 0 00.012.017l.007.009a.16.16 0 00.016.019l1.19 1.19a.393.393 0 00.28.115.393.393 0 00.28-.115.393.393 0 00.115-.28.394.394 0 00-.115-.28l-.513-.513h6.572l-.513.513a.393.393 0 00-.115.28.393.393 0 00.115.28.393.393 0 00.28.115.394.394 0 00.28-.115l1.186-1.186a.187.187 0 00.028-.033.054.054 0 00.01-.018v-.005a.068.068 0 00.013-.018.071.071 0 00.013-.023.06.06 0 00.01-.023v-.019a.059.059 0 000-.016.1.1 0 000-.014.061.061 0 00.005-.018.081.081 0 000-.02V4.713a.168.168 0 000-.044v-.014a.08.08 0 00-.012-.036z"/></g></svg>