<svg xmlns="http://www.w3.org/2000/svg" width="16.056" height="16.334"><g data-name="Group 447"><path data-name="Path 799" d="M15.689 1.356H4.653a.366.366 0 000 .733h11.036a.366.366 0 100-.733z"/><path data-name="Path 800" d="M4.653 5.322h7.242a.366.366 0 000-.733H4.653a.366.366 0 000 .733z"/><path data-name="Path 801" d="M14.741 7.822H4.653a.366.366 0 000 .733H14.74a.366.366 0 100-.733z"/><path data-name="Path 802" d="M13.792 11.055H4.653a.366.366 0 000 .733h9.139a.366.366 0 100-.733z"/><path data-name="Path 803" d="M9.05 14.288h-4.4a.366.366 0 000 .733h4.4a.366.366 0 000-.733z"/><path data-name="Path 804" d="M2.561 14.504a.364.364 0 00-.259.107l-.472.472V1.251l.472.472a.366.366 0 10.518-.518l-1.1-1.1-.024-.022-.013-.01-.011-.011-.02-.01-.016-.009-.012-.006h-.007L1.604.028 1.588.022h-.074L1.5-.003H1.414V.04l-.01-.042H1.354l-.012.023.012.042-.018-.04h-.012l-.013.006h-.006l-.013.006-.012.007h-.007l-.012.007-.014.01.025.049-.031-.032-.009.007-.027.024-1.1 1.1a.366.366 0 10.518.518l.474-.474v13.832l-.472-.472a.366.366 0 10-.518.518l1.1 1.1.028.025.01.008.019.014.009.006h.007l.014.008.015.007.013.006h.012l.014-.041-.007.043.015.005H1.589l.014-.005.012-.005-.019-.039.025.036.015-.007.01-.006h.005l.015-.009.009-.007.007-.006.012-.009.021-.019 1.1-1.1a.366.366 0 00-.259-.626z"/></g></svg>