<svg xmlns="http://www.w3.org/2000/svg" width="25.208" height="15.25"><g data-name="Group 446"><path data-name="Path 793" d="M24.799 0H12.484a.409.409 0 00-.409.409.409.409 0 00.409.409h12.315a.409.409 0 00.409-.409.409.409 0 00-.409-.409z"/><path data-name="Path 794" d="M12.484 4.426h8.082a.409.409 0 00.409-.409.409.409 0 00-.409-.409h-8.082a.409.409 0 00-.409.409.409.409 0 00.409.409z"/><path data-name="Path 795" d="M23.741 7.216H12.484a.409.409 0 00-.409.409.409.409 0 00.409.409h11.257a.409.409 0 00.409-.409.409.409 0 00-.409-.409z"/><path data-name="Path 796" d="M22.683 10.824h-10.2a.409.409 0 00-.409.409.409.409 0 00.409.409h10.2a.409.409 0 00.409-.409.409.409 0 00-.409-.409z"/><path data-name="Path 797" d="M17.391 14.432h-4.907a.409.409 0 00-.409.409.409.409 0 00.409.409h4.907a.409.409 0 00.409-.409.409.409 0 00-.409-.409z"/><path data-name="Path 798" d="M9.559 7.534a.066.066 0 000-.019.063.063 0 00-.006-.021.072.072 0 000-.013.059.059 0 000-.019V7.45l-.01-.01a.069.069 0 00-.017-.029L9.521 7.4v-.007a.072.072 0 00-.009-.013v-.01l-.014-.014-.01-.011-1.241-1.226A.405.405 0 007.958 6a.405.405 0 00-.289.119.409.409 0 000 .578l.529.529H1.4l.529-.529a.406.406 0 00.12-.289.406.406 0 00-.12-.289A.405.405 0 001.64 6a.405.405 0 00-.289.119L.124 7.346a.2.2 0 00-.016.02L.1 7.375a.072.072 0 00-.013.018.078.078 0 00-.016.023v.006a.074.074 0 00-.01.015.073.073 0 00-.01.014.079.079 0 00-.009.014l-.011.011v.011a.064.064 0 000 .014.078.078 0 000 .019.061.061 0 00-.005.018.067.067 0 000 .023v.019l-.005.01v.079a.083.083 0 00.005.031.083.083 0 00.006.022v.011a.064.064 0 00.006.019.073.073 0 000 .012.061.061 0 00.006.021.07.07 0 00.02.034.068.068 0 00.009.014.071.071 0 00.01.015.069.069 0 00.008.013v.006l.011.011a.07.07 0 00.013.017l.008.009a.178.178 0 00.016.02l1.227 1.227a.405.405 0 00.289.119.405.405 0 00.289-.119.405.405 0 00.119-.289.406.406 0 00-.119-.289l-.529-.529h6.772l-.529.529a.405.405 0 00-.119.289.405.405 0 00.119.289.405.405 0 00.289.119.405.405 0 00.289-.119l1.222-1.222a.19.19 0 00.029-.034.053.053 0 00.011-.018v-.005a.072.072 0 00.013-.018.071.071 0 00.013-.023.063.063 0 00.01-.023v-.009l.005-.01a.059.059 0 000-.017.1.1 0 000-.014.06.06 0 00.005-.019.082.082 0 000-.02V7.706l.005-.005v-.047a.175.175 0 000-.045v-.014a.082.082 0 00-.008-.039z"/></g></svg>