<svg xmlns="http://www.w3.org/2000/svg" xmlns:xlink="http://www.w3.org/1999/xlink" width="34.322" height="40.243" viewBox="0 0 34.322 40.243"><defs><linearGradient id="a" x1="0.61" y1="0.5" x2="0.836" y2="0.5" gradientUnits="objectBoundingBox"><stop offset="0" stop-color="#da251d"/><stop offset="0.502" stop-color="#89211b"/></linearGradient></defs><g transform="translate(831.801 0.001)"><path d="M0,0H34.322V40.243L26.65,26.79,0,30.5Z" transform="translate(-831.801 -0.001)" fill="#fff"/><path d="M-259.647,33.1h27.289l7.033,7.139V17.33h-34.322V33.1ZM-241.81,4.925a.731.731,0,0,0-.731.731v4.359s0,.006,0,.008a3,3,0,0,0,2.993,2.984,3,3,0,0,0,2.994-2.993,3,3,0,0,0-2.994-2.993,2.971,2.971,0,0,0-1.532.426V5.656a.731.731,0,0,0-.731-.731h0Zm2.263,3.559a1.533,1.533,0,0,1,1.531,1.531,1.532,1.532,0,0,1-1.531,1.531,1.533,1.533,0,0,1-1.532-1.531,1.534,1.534,0,0,1,1.532-1.531Zm4.5-1.456a.731.731,0,0,0-.731.731v2.5a2.752,2.752,0,0,0,1.2,2.669.732.732,0,0,0,.982-.325.731.731,0,0,0-.325-.981c-.1-.049-.4-.2-.4-1.363v-2.5a.731.731,0,0,0-.731-.731h0Zm0-2.1a.8.8,0,0,0-.8.8.8.8,0,0,0,.8.8.8.8,0,0,0,.8-.8A.8.8,0,0,0-235.049,4.928Zm3.769,9.263V12.578a2.969,2.969,0,0,0,1.531.426,3,3,0,0,0,2.993-2.993,3,3,0,0,0-2.993-2.993,3,3,0,0,0-2.993,2.993v4.18a.731.731,0,0,0,.731.731.731.731,0,0,0,.731-.731Zm1.531-5.711a1.533,1.533,0,0,1,1.531,1.531,1.533,1.533,0,0,1-1.531,1.531,1.533,1.533,0,0,1-1.531-1.531,1.533,1.533,0,0,1,1.531-1.531h0ZM-259.647,0V1.49h34.322V0Z" transform="translate(-572.154 -0.001)" fill-rule="evenodd" fill="url(#a)"/></g></svg>