<svg xmlns="http://www.w3.org/2000/svg" width="34.322" height="40.243"><defs><linearGradient id="a" x1=".61" y1=".5" x2=".836" y2=".5" gradientUnits="objectBoundingBox"><stop offset="0" stop-color="#da251d"/><stop offset=".502" stop-color="#89211b"/></linearGradient></defs><path d="M0 0h34.322v40.243L26.65 26.79 0 30.5z" fill="#fff"/><path d="M-259.647 33.1h27.289l7.033 7.139V17.33h-34.322V33.1zm17.837-28.175a.731.731 0 00-.731.731v4.367a3 3 0 002.993 2.984 3 3 0 002.994-2.993 3 3 0 00-2.994-2.993 2.971 2.971 0 00-1.532.426V5.656a.731.731 0 00-.731-.731zm2.263 3.559a1.533 1.533 0 011.531 1.531 1.532 1.532 0 01-1.531 1.531 1.533 1.533 0 01-1.532-1.531 1.534 1.534 0 011.532-1.531zm4.5-1.456a.731.731 0 00-.731.731v2.5a2.752 2.752 0 001.2 2.669.732.732 0 00.982-.325.731.731 0 00-.325-.981c-.1-.049-.4-.2-.4-1.363v-2.5a.731.731 0 00-.731-.731zm0-2.1a.8.8 0 00-.8.8.8.8 0 00.8.8.8.8 0 00.8-.8.8.8 0 00-.802-.8zm3.769 9.263v-1.613a2.969 2.969 0 001.531.426 3 3 0 002.993-2.993 3 3 0 00-2.993-2.993 3 3 0 00-2.993 2.993v4.18a.731.731 0 00.731.731.731.731 0 00.731-.731zm1.531-5.711a1.533 1.533 0 011.531 1.531 1.533 1.533 0 01-1.531 1.531 1.533 1.533 0 01-1.531-1.531 1.533 1.533 0 011.531-1.531zm-29.9-8.48v1.49h34.322V0z" transform="translate(259.647)" fill-rule="evenodd" fill="url(#a)"/></svg>