<svg xmlns="http://www.w3.org/2000/svg" width="27.119" height="29.401"><path d="M15.918 23.324a6.588 6.588 0 00-.414.844c-.638 1.571-2.129 5.233-6.52 5.233-4.005 0-5.249-4.144-5.249-5.654a1.131 1.131 0 112.262 0c0 .034.317 3.392 2.988 3.392 2.389 0 3.464-1.461 4.425-3.819a8.909 8.909 0 01.551-1.127 1.131 1.131 0 011.959 1.131zm10.873 4.618a1.13 1.13 0 01-1.6 0l-12.17-12.167a.033.033 0 000 .01l-4.69-4.695-8-8a1.131 1.131 0 011.6-1.6l3.56 3.561A8.947 8.947 0 0113.683 0a9.523 9.523 0 019.276 9.733 13.2 13.2 0 01-3.472 9.31l7.3 7.3a1.132 1.132 0 01.004 1.599zm-8.9-10.5a10.84 10.84 0 002.812-7.709 7.258 7.258 0 00-7.014-7.471 6.43 6.43 0 00-6.4 4.573l2.402 2.413c1.3-3.807 2.3-4.724 4.7-4.724 2.208 0 4.054 1.6 4.054 4.674 0 .477-.043.98-.449.98-1.037 0 .371-3.392-3.04-3.392-2.171 0-3.227 1.812-2.879 4.847zM7.127 19.354a1.993 1.993 0 002.264 2.14c1.334 0 2.657-1.185 3.3-2.851L9.34 15.292a1.111 1.111 0 01.055.28c-.004 2.071-2.268 1.504-2.268 3.782z" fill="#262626"/></svg>