<svg xmlns="http://www.w3.org/2000/svg" width="27.119" height="29.401" viewBox="0 0 27.119 29.401"><g transform="translate(-1.009)"><path d="M16.927,23.324a6.588,6.588,0,0,0-.414.844c-.638,1.571-2.129,5.233-6.52,5.233-4.005,0-5.249-4.144-5.249-5.654a1.131,1.131,0,1,1,2.262,0c0,.034.317,3.392,2.988,3.392,2.389,0,3.464-1.461,4.425-3.819a8.909,8.909,0,0,1,.551-1.127,1.131,1.131,0,0,1,1.959,1.131ZM27.8,27.942a1.13,1.13,0,0,1-1.6,0L14.03,15.775a.033.033,0,0,0,0,.01L9.34,11.09l0,0-8-8a1.131,1.131,0,0,1,1.6-1.6L6.5,5.051A8.947,8.947,0,0,1,14.692,0a9.523,9.523,0,0,1,9.276,9.733,13.2,13.2,0,0,1-3.472,9.31l7.3,7.3A1.132,1.132,0,0,1,27.8,27.942Zm-8.9-10.5a10.84,10.84,0,0,0,2.812-7.709,7.258,7.258,0,0,0-7.014-7.471,6.43,6.43,0,0,0-6.4,4.573L10.7,9.248c1.3-3.807,2.3-4.724,4.7-4.724,2.208,0,4.054,1.6,4.054,4.674,0,.477-.043.98-.449.98-1.037,0,.371-3.392-3.04-3.392-2.171,0-3.227,1.812-2.879,4.847ZM8.136,19.354A1.993,1.993,0,0,0,10.4,21.494c1.334,0,2.657-1.185,3.3-2.851l-3.351-3.351a1.111,1.111,0,0,1,.055.28C10.4,17.643,8.136,17.076,8.136,19.354Z" fill="#262626"/></g></svg>