<svg xmlns="http://www.w3.org/2000/svg" width="32.887" height="12.9"><g data-name="Group 452"><g data-name="eye (2)"><g data-name="Group 443"><g data-name="Group 442"><path data-name="Path 791" d="M22.032 6.188C21.858 5.935 17.673 0 11.057 0 5.38 0 .321 5.9.109 6.152a.462.462 0 000 .6c.213.252 5.271 6.152 10.948 6.152s10.736-5.9 10.948-6.152a.461.461 0 00.027-.564zm-10.975 5.79c-4.551 0-8.878-4.34-9.977-5.529C2.18 5.259 6.5.92 11.057.92c5.325 0 9.083 4.333 10 5.5-1.057 1.156-5.41 5.559-10 5.559z"/></g></g><g data-name="Group 445"><g data-name="Group 444"><path data-name="Path 792" d="M11.057 2.764a3.686 3.686 0 103.686 3.686 3.689 3.689 0 00-3.686-3.686zm0 6.45a2.764 2.764 0 112.764-2.764 2.768 2.768 0 01-2.764 2.764z"/></g></g></g><path data-name="Path 807" d="M25 4.4h7.887l-3.943 5.044z"/></g></svg>