<svg xmlns="http://www.w3.org/2000/svg" width="168" height="50.048" viewBox="0 0 168 50.048"><g transform="translate(-5.223 -5.86)"><rect width="6.978" height="13.956" transform="translate(5.223 12.838)" fill="#a33995"/><path d="M5.223,101.85H54.07v6.977H47.092v6.978H40.114v6.979H33.135v6.978H26.157v-6.978H19.179v-6.979H12.2v-6.978H5.223Z" transform="translate(0 -73.854)" fill="#57585f" fill-rule="evenodd"/><rect width="6.978" height="20.934" transform="translate(12.201 5.86)" fill="#ee2926"/><rect width="6.978" height="20.934" transform="translate(19.179 5.86)" fill="#ffd114"/><rect width="6.978" height="13.956" transform="translate(26.157 12.838)" fill="#61cbec"/><rect width="6.978" height="20.934" transform="translate(33.135 5.86)" fill="#dc2890"/><rect width="6.978" height="20.934" transform="translate(40.114 5.86)" fill="#b7d133"/><rect width="6.978" height="13.956" transform="translate(47.092 12.838)" fill="#e0bb6b"/><path d="M276.714,39.955V53.026a.48.48,0,0,0,.549.549h1.57c.354,0,.53-.177.53-.549V48.473c0-.177.079-.255.255-.255a.248.248,0,0,1,.217.116l3.925,5.063a.443.443,0,0,0,.392.177h1.923a.5.5,0,0,0,.511-.51.516.516,0,0,0-.118-.314l-4.985-6.26,4.985-6.261a.516.516,0,0,0,.118-.313.5.5,0,0,0-.511-.511h-1.923a.444.444,0,0,0-.392.176l-3.925,5.064a.246.246,0,0,1-.217.118c-.176,0-.255-.078-.255-.255V39.955c0-.374-.176-.55-.53-.55h-1.57a.48.48,0,0,0-.549.55" transform="translate(-208.883 -25.809)" fill="#57585f"/><path d="M341.768,46.356h-3.885a.261.261,0,0,1-.3-.294V42.627a.745.745,0,0,1,.824-.824h2.827a.744.744,0,0,1,.824.824v3.435a.26.26,0,0,1-.294.294m-3.885,2.414h3.885a.26.26,0,0,1,.294.294v3.964c0,.373.175.55.529.55h1.571a.482.482,0,0,0,.551-.55V42.391a2.782,2.782,0,0,0-2.983-2.982H337.92a2.782,2.782,0,0,0-2.983,2.982V53.028a.481.481,0,0,0,.55.55h1.571c.353,0,.53-.177.53-.55V49.064A.261.261,0,0,1,337.883,48.77Z" transform="translate(-253.679 -25.812)" fill="#57585f"/><path d="M397.724,54.313c.354,0,.529-.177.529-.55V42.831a.262.262,0,0,1,.3-.294h2.689a.48.48,0,0,0,.549-.55V40.672c0-.353-.176-.529-.549-.529h-8.616c-.373,0-.55.176-.55.529v1.316a.481.481,0,0,0,.55.55h2.689a.261.261,0,0,1,.294.294V53.763c0,.373.176.55.529.55h1.59Z" transform="translate(-297.637 -26.377)" fill="#57585f"/><path d="M455.222,51.919H453.5a1.463,1.463,0,0,1-1.668-1.649V44.185a1.462,1.462,0,0,1,1.668-1.648h1.726a1.463,1.463,0,0,1,1.669,1.648V50.27a1.464,1.464,0,0,1-1.669,1.649m-2.138,2.394h2.551a3.546,3.546,0,0,0,3.906-3.905V44.049a3.546,3.546,0,0,0-3.906-3.906h-2.551a3.546,3.546,0,0,0-3.907,3.906v6.359A3.546,3.546,0,0,0,453.084,54.313Z" transform="translate(-341.574 -26.377)" fill="#57585f"/><path d="M518.489,43.931l1.845,10.127a.28.28,0,0,0,.3.256h2.728a.279.279,0,0,0,.294-.256l2.965-13.4a.4.4,0,0,0-.354-.51h-1.885a.5.5,0,0,0-.53.392l-1.9,10.99-1.9-10.99a.5.5,0,0,0-.532-.392H517.47a.5.5,0,0,0-.531.392l-1.9,10.99-1.9-10.99a.5.5,0,0,0-.532-.392h-1.884a.4.4,0,0,0-.352.51l2.964,13.4a.278.278,0,0,0,.294.256h2.728a.279.279,0,0,0,.295-.256Z" transform="translate(-388.642 -26.378)" fill="#57585f"/><path d="M598.873,40.143a.48.48,0,0,0-.55.55v13.07a.48.48,0,0,0,.55.549h1.569c.353,0,.529-.176.529-.549V40.693c0-.374-.176-.55-.529-.55h-1.569Z" transform="translate(-456.326 -26.377)" fill="#57585f"/><path d="M636.811,54.314H639.7a2.782,2.782,0,0,0,2.983-2.983v-.707a.48.48,0,0,0-.549-.55h-1.571c-.354,0-.531.177-.531.55v.47a.744.744,0,0,1-.823.825h-1.982a1.464,1.464,0,0,1-1.669-1.649V44.186a1.463,1.463,0,0,1,1.669-1.648H639.2a.744.744,0,0,1,.823.825v.471c0,.372.177.549.531.549h1.571a.48.48,0,0,0,.549-.549v-.708a2.782,2.782,0,0,0-2.983-2.982h-2.885A3.546,3.546,0,0,0,632.9,44.05v6.359a3.546,3.546,0,0,0,3.907,3.9" transform="translate(-482.932 -26.378)" fill="#57585f"/><path d="M703.708,51.919h-5.339a.261.261,0,0,1-.294-.294V48.7a.261.261,0,0,1,.294-.3h4.024c.412,0,.608-.175.608-.51V46.58c0-.354-.2-.529-.608-.529h-4.024a.261.261,0,0,1-.294-.294V42.831a.261.261,0,0,1,.294-.294h5.339a.48.48,0,0,0,.549-.55V40.672c0-.353-.176-.529-.549-.529h-7.733a.482.482,0,0,0-.551.55v13.07a.482.482,0,0,0,.551.55h7.733a.481.481,0,0,0,.549-.55V52.448c0-.352-.176-.529-.549-.529" transform="translate(-531.034 -26.377)" fill="#57585f"/><g transform="translate(68.139 33.398)"><path d="M282.259,133.6H281.4l.06-.7a3.364,3.364,0,0,1-2.194.823,1.056,1.056,0,0,1-1.216-1.157,3.3,3.3,0,0,1,.036-.454l.406-2.289c.25-1.431.763-2.146,2.6-2.146a5.232,5.232,0,0,1,1.2.155l.429-2.408,1-.143Zm-.107-4.936a5.478,5.478,0,0,0-1.168-.143c-1.037,0-1.335.286-1.538,1.431l-.37,2.11a2.245,2.245,0,0,0-.036.37c0,.286.107.441.465.441a3.563,3.563,0,0,0,2.075-.966Z" transform="translate(-278.05 -125.273)" fill="#57585f"/><path d="M306.017,125.418l1-.143-1.467,8.323h-.978Z" transform="translate(-298.457 -125.275)" fill="#57585f"/><path d="M321.416,141.593H320.6l.036-.7a3.259,3.259,0,0,1-2.17.823,1.065,1.065,0,0,1-1.228-1.157,3.074,3.074,0,0,1,.048-.454l.405-2.3c.25-1.407.775-2.134,2.611-2.134a6.367,6.367,0,0,1,2.087.393Zm-.107-4.936a4.478,4.478,0,0,0-1.121-.143c-.895,0-1.335.274-1.539,1.419l-.369,2.1a2.814,2.814,0,0,0-.048.405c0,.274.119.429.477.429a3.119,3.119,0,0,0,2.039-1.014Z" transform="translate(-308.204 -133.269)" fill="#57585f"/><path d="M354.876,139.507l.3-1.693a2.388,2.388,0,0,1,2.731-2.146c1.336,0,2.027.739,2.027,1.729a2.037,2.037,0,0,1-.036.405l-.322,1.825c-.226,1.312-.918,2.087-2.718,2.087C355.2,141.713,354.649,140.759,354.876,139.507Zm4.042-1.705a1.983,1.983,0,0,0,.036-.346c0-.632-.37-.942-1.192-.942a1.451,1.451,0,0,0-1.61,1.359l-.3,1.682c-.131.8.06,1.311,1.145,1.311a1.4,1.4,0,0,0,1.609-1.3Z" transform="translate(-337.122 -133.27)" fill="#57585f"/><path d="M385.308,133.6h-.859l.06-.7a3.364,3.364,0,0,1-2.194.823,1.056,1.056,0,0,1-1.216-1.157,3.294,3.294,0,0,1,.035-.454l.406-2.289c.25-1.431.764-2.146,2.6-2.146a5.232,5.232,0,0,1,1.2.155l.429-2.408,1-.143Zm-.107-4.936a5.484,5.484,0,0,0-1.168-.143c-1.038,0-1.335.286-1.538,1.431l-.37,2.11a2.219,2.219,0,0,0-.036.37c0,.286.107.441.465.441a3.562,3.562,0,0,0,2.075-.966Z" transform="translate(-357.335 -125.273)" fill="#57585f"/><path d="M415.387,137.123a1.5,1.5,0,0,0,.024-.2c0-.238-.119-.322-.405-.322a5.03,5.03,0,0,0-2.182.87L412.1,141.6h-.978l.787-4.472a1.513,1.513,0,0,0,.024-.2c0-.238-.12-.322-.406-.322a5.162,5.162,0,0,0-2.194.87L408.6,141.6h-.978l1.014-5.736.859-.143-.072.823a5.441,5.441,0,0,1,2.456-.87.9.9,0,0,1,1.026.87,5.273,5.273,0,0,1,2.456-.87.917.917,0,0,1,1.037,1.025,2.786,2.786,0,0,1-.047.5l-.775,4.4H414.6Z" transform="translate(-377.743 -133.272)" fill="#57585f"/><path d="M451.141,127.862l1-.143-1.037,5.879h-.978Zm.43-2.444,1-.143-.262,1.491-1,.131Z" transform="translate(-410.445 -125.275)" fill="#57585f"/><path d="M466.967,141.593h-.811l.035-.7a3.258,3.258,0,0,1-2.17.823,1.065,1.065,0,0,1-1.228-1.157,3.138,3.138,0,0,1,.048-.454l.406-2.3c.25-1.407.775-2.134,2.611-2.134a6.365,6.365,0,0,1,2.087.393Zm-.107-4.936a4.479,4.479,0,0,0-1.121-.143c-.895,0-1.336.274-1.538,1.419l-.37,2.1a2.814,2.814,0,0,0-.048.405c0,.274.119.429.477.429a3.123,3.123,0,0,0,2.039-1.014Z" transform="translate(-420.19 -133.269)" fill="#57585f"/><path d="M494.456,136.693a2.775,2.775,0,0,1-.048.5l-.775,4.4h-.978l.787-4.472a1.508,1.508,0,0,0,.024-.2c0-.238-.12-.322-.406-.322a5.165,5.165,0,0,0-2.194.87l-.727,4.126h-.978l1.014-5.735.858-.143-.072.823a5.442,5.442,0,0,1,2.457-.87A.917.917,0,0,1,494.456,136.693Z" transform="translate(-440.477 -133.271)" fill="#57585f"/><path d="M514.5,144.232l-.263-.751a3.406,3.406,0,0,0,2.015-1.729h-.346L515,136.029l.942-.131.739,5.079,1.646-3.434a1.741,1.741,0,0,0,.215-.882,2.628,2.628,0,0,0-.1-.644l.942-.143a3.427,3.427,0,0,1,.1.764,2.078,2.078,0,0,1-.2,1.014l-2.015,4.1A4.345,4.345,0,0,1,514.5,144.232Z" transform="translate(-459.772 -133.429)" fill="#57585f"/></g></g></svg>