<svg xmlns="http://www.w3.org/2000/svg" width="168" height="50.048"><path fill="#a33995" d="M0 6.978h6.978v13.956H0z"/><path d="M0 22.136h48.847v6.977h-6.978v6.978h-6.978v6.979h-6.979v6.978h-6.978V43.07h-6.978v-6.979H6.977v-6.978H0z" fill="#57585f" fill-rule="evenodd"/><path fill="#ee2926" d="M6.978 0h6.978v20.934H6.978z"/><path fill="#ffd114" d="M13.956 0h6.978v20.934h-6.978z"/><path fill="#61cbec" d="M20.934 6.978h6.978v13.956h-6.978z"/><path fill="#dc2890" d="M27.912 0h6.978v20.934h-6.978z"/><path fill="#b7d133" d="M34.891 0h6.978v20.934h-6.978z"/><path fill="#e0bb6b" d="M41.869 6.978h6.978v13.956h-6.978z"/><path d="M62.608 8.286v13.071a.48.48 0 00.549.549h1.57c.354 0 .53-.177.53-.549v-4.553c0-.177.079-.255.255-.255a.248.248 0 01.217.116l3.925 5.063a.443.443 0 00.392.177h1.923a.5.5 0 00.511-.51.516.516 0 00-.118-.314l-4.985-6.26 4.985-6.261a.516.516 0 00.118-.313.5.5 0 00-.511-.511h-1.923a.444.444 0 00-.392.176l-3.925 5.064a.246.246 0 01-.217.118c-.176 0-.255-.078-.255-.255V8.286c0-.374-.176-.55-.53-.55h-1.57a.48.48 0 00-.549.55M82.866 14.684h-3.885a.261.261 0 01-.3-.294v-3.435a.745.745 0 01.824-.824h2.827a.744.744 0 01.824.824v3.435a.26.26 0 01-.294.294m-3.885 2.414h3.885a.26.26 0 01.294.294v3.964c0 .373.175.55.529.55h1.571a.482.482 0 00.551-.55V10.719a2.782 2.782 0 00-2.983-2.982h-3.806a2.782 2.782 0 00-2.983 2.982v10.637a.481.481 0 00.55.55h1.571c.353 0 .53-.177.53-.55v-3.964a.261.261 0 01.295-.294zM94.864 22.076c.354 0 .529-.177.529-.55V10.594a.262.262 0 01.3-.294h2.689a.48.48 0 00.549-.55V8.435c0-.353-.176-.529-.549-.529h-8.616c-.373 0-.55.176-.55.529v1.316a.481.481 0 00.55.55h2.689a.261.261 0 01.294.294v10.931c0 .373.176.55.529.55h1.59zM108.425 19.682h-1.722a1.463 1.463 0 01-1.668-1.649v-6.085a1.462 1.462 0 011.668-1.648h1.726a1.463 1.463 0 011.669 1.648v6.085a1.464 1.464 0 01-1.669 1.649m-2.138 2.394h2.551a3.546 3.546 0 003.906-3.905v-6.359a3.546 3.546 0 00-3.906-3.906h-2.551a3.546 3.546 0 00-3.907 3.906v6.359a3.546 3.546 0 003.903 3.905zM124.624 11.693l1.845 10.127a.28.28 0 00.3.256h2.728a.279.279 0 00.294-.256l2.965-13.4a.4.4 0 00-.354-.51h-1.885a.5.5 0 00-.53.392l-1.9 10.99-1.9-10.99a.5.5 0 00-.532-.392h-2.05a.5.5 0 00-.531.392l-1.9 10.99-1.9-10.99a.5.5 0 00-.532-.392h-1.884a.4.4 0 00-.352.51l2.964 13.4a.278.278 0 00.294.256h2.728a.279.279 0 00.295-.256zM137.324 7.906a.48.48 0 00-.55.55v13.07a.48.48 0 00.55.549h1.569c.353 0 .529-.176.529-.549V8.456c0-.374-.176-.55-.529-.55h-1.569zM148.656 22.076h2.889a2.782 2.782 0 002.983-2.983v-.707a.48.48 0 00-.549-.55h-1.571c-.354 0-.531.177-.531.55v.47a.744.744 0 01-.823.825h-1.982a1.464 1.464 0 01-1.669-1.649v-6.084a1.463 1.463 0 011.669-1.648h1.973a.744.744 0 01.823.825v.471c0 .372.177.549.531.549h1.571a.48.48 0 00.549-.549v-.708a2.782 2.782 0 00-2.983-2.982h-2.885a3.546 3.546 0 00-3.906 3.906v6.359a3.546 3.546 0 003.907 3.9M167.451 19.682h-5.339a.261.261 0 01-.294-.294v-2.925a.261.261 0 01.294-.3h4.024c.412 0 .608-.175.608-.51v-1.31c0-.354-.2-.529-.608-.529h-4.024a.261.261 0 01-.294-.294v-2.926a.261.261 0 01.294-.294h5.339a.48.48 0 00.549-.55V8.435c0-.353-.176-.529-.549-.529h-7.733a.482.482 0 00-.551.55v13.07a.482.482 0 00.551.55h7.733a.481.481 0 00.549-.55v-1.315c0-.352-.176-.529-.549-.529" fill="#57585f"/><g fill="#57585f"><path d="M67.125 35.865h-.859l.06-.7a3.364 3.364 0 01-2.194.823 1.056 1.056 0 01-1.216-1.157 3.3 3.3 0 01.036-.454l.406-2.289c.25-1.431.763-2.146 2.6-2.146a5.232 5.232 0 011.2.155l.429-2.408 1-.143zm-.107-4.936a5.478 5.478 0 00-1.168-.143c-1.037 0-1.335.286-1.538 1.431l-.37 2.11a2.245 2.245 0 00-.036.37c0 .286.107.441.465.441a3.563 3.563 0 002.075-.966zM70.476 27.681l1-.143-1.467 8.323h-.978zM76.128 35.862h-.816l.036-.7a3.259 3.259 0 01-2.17.823 1.065 1.065 0 01-1.228-1.157 3.074 3.074 0 01.048-.454l.405-2.3c.25-1.407.775-2.134 2.611-2.134a6.367 6.367 0 012.087.393zm-.107-4.936a4.478 4.478 0 00-1.121-.143c-.895 0-1.335.274-1.539 1.419l-.369 2.1a2.814 2.814 0 00-.048.405c0 .274.119.429.477.429a3.119 3.119 0 002.039-1.014zM80.67 33.775l.3-1.693a2.388 2.388 0 012.731-2.146c1.336 0 2.027.739 2.027 1.729a2.037 2.037 0 01-.036.405l-.322 1.825c-.226 1.312-.918 2.087-2.718 2.087-1.658-.001-2.209-.955-1.982-2.207zm4.042-1.705a1.983 1.983 0 00.036-.346c0-.632-.37-.942-1.192-.942a1.451 1.451 0 00-1.61 1.359l-.3 1.682c-.131.8.06 1.311 1.145 1.311a1.4 1.4 0 001.609-1.3zM90.889 35.865h-.859l.06-.7a3.364 3.364 0 01-2.194.823 1.056 1.056 0 01-1.216-1.157 3.294 3.294 0 01.035-.454l.406-2.289c.25-1.431.764-2.146 2.6-2.146a5.232 5.232 0 011.2.155l.429-2.408 1-.143zm-.107-4.936a5.484 5.484 0 00-1.168-.143c-1.038 0-1.335.286-1.538 1.431l-.37 2.11a2.219 2.219 0 00-.036.37c0 .286.107.441.465.441a3.562 3.562 0 002.075-.966zM100.56 31.389a1.5 1.5 0 00.024-.2c0-.238-.119-.322-.405-.322a5.03 5.03 0 00-2.182.87l-.724 4.129h-.978l.787-4.472a1.513 1.513 0 00.024-.2c0-.238-.12-.322-.406-.322a5.162 5.162 0 00-2.194.87l-.733 4.124h-.978l1.014-5.736.859-.143-.072.823a5.441 5.441 0 012.456-.87.9.9 0 011.026.87 5.273 5.273 0 012.456-.87.917.917 0 011.037 1.025 2.786 2.786 0 01-.047.5l-.775 4.4h-.976zM103.612 30.125l1-.143-1.037 5.879h-.978zm.43-2.444l1-.143-.262 1.491-1 .131zM109.693 35.862h-.811l.035-.7a3.258 3.258 0 01-2.17.823 1.065 1.065 0 01-1.228-1.157 3.138 3.138 0 01.048-.454l.406-2.3c.25-1.407.775-2.134 2.611-2.134a6.365 6.365 0 012.087.393zm-.107-4.936a4.479 4.479 0 00-1.121-.143c-.895 0-1.336.274-1.538 1.419l-.37 2.1a2.814 2.814 0 00-.048.405c0 .274.119.429.477.429a3.123 3.123 0 002.039-1.014zM116.895 30.96a2.775 2.775 0 01-.048.5l-.775 4.4h-.978l.787-4.472a1.508 1.508 0 00.024-.2c0-.238-.12-.322-.406-.322a5.165 5.165 0 00-2.194.87l-.727 4.126h-.978l1.014-5.735.858-.143-.072.823a5.442 5.442 0 012.457-.87.917.917 0 011.038 1.023zM117.644 38.341l-.263-.751a3.406 3.406 0 002.015-1.729h-.346l-.906-5.723.942-.131.739 5.079 1.646-3.434a1.741 1.741 0 00.215-.882 2.628 2.628 0 00-.1-.644l.942-.143a3.427 3.427 0 01.1.764 2.078 2.078 0 01-.2 1.014l-2.015 4.1a4.345 4.345 0 01-2.769 2.48z"/></g></svg>