<svg id="Warstwa_1" data-name="Warstwa 1" xmlns="http://www.w3.org/2000/svg" viewBox="0 0 595.28 143.97"><defs><style>.cls-1{fill:#1d1d1b;}</style></defs><title>KavaStudio_logo</title><g id="_grupa_" data-name="&lt;grupa&gt;"><path id="_ścieżka_złożona_" data-name="&lt;ścieżka złożona&gt;" class="cls-1" d="M80.79,57.93l55.29,79H94.61L58.41,82.26,35.63,107.18V137H3.7V4.59H35.63V62.8L86.24,4.59h40.11Z"/><path id="_ścieżka_złożona_2" data-name="&lt;ścieżka złożona&gt;" class="cls-1" d="M257.55,116.33H193.69L184.93,137H151.06L207.71,4.59h35.63L300.18,137H266.11ZM246.46,90.25,225.82,40.8l-21,49.45Z"/><path id="_ścieżka_złożona_3" data-name="&lt;ścieżka złożona&gt;" class="cls-1" d="M389.52,137h-35L295.88,4.59h35.23L372.19,99.2,413.08,4.59h35.23Z"/><path id="_ścieżka_złożona_4" data-name="&lt;ścieżka złożona&gt;" class="cls-1" d="M550.49,116.33H486.64L477.88,137H444L500.66,4.59h35.62L593.14,137H559.06ZM539.4,90.25,518.76,40.8l-21,49.45Z"/></g></svg>