<svg xmlns="http://www.w3.org/2000/svg" height="37.245" width="323.377"><defs><clipPath id="a" clipPathUnits="userSpaceOnUse"><path d="M0 27.933h242.533V0H0z"/></clipPath></defs><path d="M83.576 12.322H70.493V8.135h13.083zM56.23 29.038h-4.187V8.136h14.595v4.185H56.23z"/><path d="M60.388 18.454h-6.25v-4.187h6.25z"/><g clip-path="url(#a)" transform="matrix(1.33333 0 0 -1.33333 0 37.245)"><path d="M26.946 19.76a5.772 5.772 0 01-5.766-5.766 5.773 5.773 0 015.766-5.766 5.773 5.773 0 015.766 5.766 5.772 5.772 0 01-5.766 5.766m0-14.671c-4.91 0-8.905 3.995-8.905 8.905 0 4.91 3.995 8.906 8.905 8.906 4.91 0 8.906-3.995 8.906-8.906 0-4.91-3.995-8.905-8.906-8.905M221.014 5.065h-2.883a8.846 8.846 0 00-6.588 2.949 8.879 8.879 0 00-2.189 6.904c.448 3.98 3.655 7.238 7.625 7.743 2.744.35 5.433-.56 7.38-2.494l-2.213-2.227a5.706 5.706 0 01-4.77 1.607c-2.552-.325-4.614-2.42-4.902-4.98a5.66 5.66 0 011.41-4.461 5.704 5.704 0 014.247-1.901h1.582l1.97 1.969v3.645h-5.21v3.14h8.35V8.873zM139.623 6.162h-10.945v15.622h10.945v-3.14h-7.806V9.303h7.806z"/><path d="M134.935 14.046h-4.687v3.14h4.687zM59.538 6.155h-3.14v14.107h3.14zM156.642 6.144h-3.14v14.138h3.14zM164.994 6.144h-3.14v15.678h3.14zM179.101 6.144h-3.14v15.678h3.14zM185.871 6.144h-3.14v15.678h3.14z"/><path d="M159.913 18.712h-9.812v3.139h9.812zM83.001 6.176h-3.185l-3.322 7.972-3.322-7.972h-3.184l-4.894 15.12 2.987.965 3.67-11.335 3.207 7.696h3.073l3.207-7.696 3.67 11.335 2.986-.966zM177.532 11.627h-14.107v3.14h14.107zM203.32 5.034l-2.68 1.11v9.587l-6.45-10.233-2.897.837v11.147l-.92-.883-2.175 2.265 3.577 3.434 2.657-1.133v-9.396l6.45 10.233 2.899-.837V9.934l.992.992 2.22-2.22zM98.254 18.986a5.49 5.49 0 01-5.485-5.484 5.466 5.466 0 013.159-4.971l5.779 9.23a5.44 5.44 0 01-3.453 1.225M96.23 5.116a8.595 8.595 0 00-6.601 8.386c0 4.755 3.868 8.624 8.623 8.624a8.562 8.562 0 005.128-1.69l.596.953 2.9-.833V6.144h-3.14v8.946L97.93 5.81zM113.837 6.116h-3.14v14.099h3.14z"/><path d="M113.837 15.219h4.542a1.695 1.695 0 010 3.388h-4.542zm4.542-3.14h-7.682v9.667h7.682a4.838 4.838 0 004.833-4.833 4.839 4.839 0 00-4.833-4.834"/><path d="M122.985 5.3l-5.336 8.752 2.68 1.634 5.337-8.753zM11.915 18.624c-.145.36-.36.697-.721 1.009-.505.408-1.033.576-1.73.576-1.49 0-2.258-.888-2.258-1.921 0-.481.168-1.322 1.73-1.946l1.609-.65c2.955-1.201 3.772-2.882 3.772-4.708 0-3.051-2.162-5.142-5.165-5.142-1.85 0-2.955.698-3.772 1.61-.865.96-1.25 2.018-1.345 3.124l2.426.528c0-.793.288-1.538.673-2.042.456-.576 1.129-.961 2.09-.961 1.49 0 2.643 1.08 2.643 2.69 0 1.634-1.25 2.307-2.307 2.74l-1.538.648c-1.32.553-3.267 1.658-3.267 4.06 0 2.163 1.682 4.229 4.685 4.229 1.73 0 2.715-.65 3.22-1.081a5.465 5.465 0 001.225-1.61z"/><path d="M4.319 10.37a4.887 4.887 0 011.255-2.742c.942-1.054 2.046-1.524 3.578-1.524 2.887 0 4.903 2.007 4.903 4.88 0 1.287-.374 3.151-3.61 4.466l-1.607.648c-1.257.503-1.894 1.24-1.894 2.19 0 1.086.779 2.183 2.52 2.183.768 0 1.352-.196 1.895-.635.285-.247.506-.524.672-.84l1.505.88a5.218 5.218 0 01-1.05 1.315c-.786.673-1.812 1.015-3.046 1.015-2.904 0-4.423-1.996-4.423-3.967 0-1.695 1.016-2.944 3.106-3.819l1.539-.648c.736-.3 2.466-1.008 2.466-2.98 0-1.711-1.222-2.952-2.904-2.952-.966 0-1.738.356-2.296 1.06a3.743 3.743 0 00-.714 1.883zm4.833-4.788c-1.671 0-2.932.539-3.967 1.696-.84.932-1.301 2.003-1.411 3.276l-.02.227 2.968.647v-.325c0-.67.232-1.374.619-1.882.45-.568 1.085-.858 1.883-.858 1.402 0 2.38.999 2.38 2.429 0 1.425-1.03 2.042-2.143 2.497l-1.54.649c-2.274.952-3.428 2.4-3.428 4.301 0 2.232 1.7 4.49 4.947 4.49 1.363 0 2.504-.383 3.389-1.143a5.745 5.745 0 001.29-1.692l.109-.22-2.443-1.43-.113.283a2.293 2.293 0 01-.65.909c-.442.357-.91.512-1.558.512-1.213 0-1.997-.651-1.997-1.66 0-.266 0-1.077 1.565-1.703l1.61-.65c2.686-1.091 3.937-2.664 3.937-4.951 0-3.18-2.232-5.402-5.427-5.402M236.116 18.276c-.145.36-.36.697-.721 1.009-.505.408-1.033.576-1.73.576-1.49 0-2.258-.888-2.258-1.921 0-.481.168-1.322 1.73-1.946l1.61-.65c2.955-1.2 3.77-2.882 3.77-4.708 0-3.051-2.161-5.141-5.164-5.141-1.85 0-2.955.696-3.772 1.609-.864.96-1.25 2.019-1.346 3.123l2.427.529c0-.793.288-1.538.673-2.042.457-.577 1.129-.961 2.09-.961 1.49 0 2.642 1.082 2.642 2.69 0 1.635-1.25 2.308-2.305 2.74l-1.54.649c-1.32.552-3.265 1.657-3.265 4.06 0 2.162 1.68 4.228 4.684 4.228 1.73 0 2.715-.65 3.219-1.081a5.45 5.45 0 001.226-1.61z"/><path d="M228.52 10.022a4.887 4.887 0 011.255-2.742c.942-1.054 2.046-1.524 3.578-1.524 2.887 0 4.903 2.007 4.903 4.88 0 1.287-.374 3.152-3.608 4.467l-1.609.648c-1.257.502-1.894 1.239-1.894 2.188 0 1.087.78 2.184 2.52 2.184.768 0 1.352-.196 1.894-.635.286-.247.507-.523.674-.841l1.504.88a5.24 5.24 0 01-1.05 1.316c-.785.673-1.812 1.015-3.046 1.015-2.904 0-4.424-1.995-4.424-3.966 0-1.696 1.017-2.945 3.108-3.82l1.538-.65c.736-.3 2.466-1.006 2.466-2.978 0-1.711-1.22-2.953-2.905-2.953-.965 0-1.737.357-2.295 1.06a3.747 3.747 0 00-.714 1.883zm4.833-4.79c-1.67 0-2.932.54-3.968 1.698-.839.932-1.3 2.003-1.41 3.275l-.02.229 2.968.647v-.325c0-.671.232-1.375.62-1.883.45-.57 1.084-.86 1.881-.86 1.403 0 2.381 1 2.381 2.43 0 1.425-1.03 2.042-2.143 2.497l-1.54.65c-2.274.952-3.427 2.399-3.427 4.302 0 2.23 1.698 4.49 4.946 4.49 1.363 0 2.504-.385 3.39-1.144a5.785 5.785 0 001.29-1.692l.108-.22-2.443-1.43-.113.282a2.278 2.278 0 01-.65.909c-.44.358-.91.513-1.558.513-1.213 0-1.998-.652-1.998-1.661 0-.266 0-1.076 1.567-1.703l1.61-.65c2.685-1.09 3.936-2.664 3.936-4.95 0-3.181-2.232-5.403-5.427-5.403"/></g></svg>